<svg width="36" height="14" viewBox="0 0 36 14" fill="none" xmlns="http://www.w3.org/2000/svg">
<g filter="url(#filter0_d_1705_2)">
<path d="M9.99024 1.96961H10.3195L10.8701 3.48844L11.4194 1.96961H11.75L11.0016 3.98733H10.7373L9.99024 1.96961ZM9.82426 1.96961H10.1465L10.2047 3.36511V3.98733H9.82426V1.96961ZM11.5923 1.96961H11.9161V3.98733H11.5356V3.36511L11.5923 1.96961ZM12.9481 4.01505C12.8347 4.01505 12.7328 3.99656 12.6424 3.95961C12.5519 3.92265 12.475 3.87138 12.4113 3.80578C12.3486 3.73927 12.3002 3.66213 12.266 3.57436C12.2328 3.48567 12.2163 3.39051 12.2163 3.28889V3.23346C12.2163 3.11797 12.2328 3.01311 12.266 2.91888C12.2993 2.82373 12.3463 2.74197 12.4072 2.67359C12.468 2.60523 12.541 2.55257 12.6257 2.51562C12.7106 2.47866 12.8042 2.46018 12.9066 2.46018C13.0127 2.46018 13.1063 2.4782 13.1874 2.51423C13.2686 2.54933 13.3364 2.59922 13.3908 2.6639C13.4453 2.72857 13.4862 2.80617 13.514 2.8967C13.5416 2.98633 13.5554 3.08564 13.5554 3.19466V3.34848H12.3823V3.09626H13.1958V3.06855C13.1939 3.01035 13.1828 2.95723 13.1625 2.90918C13.1422 2.86022 13.1109 2.82141 13.0684 2.79277C13.026 2.76321 12.9711 2.74842 12.9039 2.74842C12.8494 2.74842 12.802 2.76044 12.7614 2.78446C12.7217 2.80755 12.6885 2.84082 12.6617 2.88424C12.6359 2.92673 12.6165 2.97754 12.6036 3.03667C12.5907 3.0958 12.5843 3.16139 12.5843 3.23346V3.28889C12.5843 3.35171 12.5925 3.40991 12.6092 3.4635C12.6267 3.51708 12.652 3.56374 12.6852 3.60346C12.7193 3.64226 12.7599 3.67275 12.807 3.69492C12.855 3.71617 12.9094 3.7268 12.9702 3.7268C13.0468 3.7268 13.116 3.71202 13.1777 3.68246C13.2404 3.65197 13.2949 3.60716 13.341 3.54804L13.5251 3.73927C13.4937 3.78547 13.4513 3.82981 13.3977 3.8723C13.3451 3.9148 13.2815 3.94945 13.2068 3.97623C13.1321 4.00211 13.0459 4.01505 12.9481 4.01505ZM14.6982 3.6686V1.85875H15.0662V3.98733H14.7342L14.6982 3.6686ZM13.7367 3.25563V3.22653C13.7367 3.11197 13.7496 3.00804 13.7755 2.91473C13.8021 2.82049 13.8409 2.73965 13.8916 2.67221C13.9424 2.60477 14.0037 2.55257 14.0757 2.51562C14.1485 2.47866 14.231 2.46018 14.3232 2.46018C14.4127 2.46018 14.4906 2.4782 14.5571 2.51423C14.6244 2.55027 14.6815 2.60153 14.7286 2.66806C14.7766 2.73457 14.8148 2.81356 14.8435 2.90503C14.8721 2.99556 14.8927 3.09533 14.9057 3.20435V3.28335C14.8927 3.38959 14.8721 3.48705 14.8435 3.57574C14.8148 3.66443 14.7766 3.74204 14.7286 3.80856C14.6815 3.87416 14.6244 3.92497 14.5571 3.96099C14.4897 3.99702 14.4108 4.01505 14.3205 4.01505C14.2291 4.01505 14.1471 3.9961 14.0743 3.95822C14.0024 3.92035 13.941 3.86723 13.8902 3.79885C13.8404 3.73049 13.8021 3.65011 13.7755 3.55773C13.7496 3.46534 13.7367 3.36465 13.7367 3.25563ZM14.1033 3.22653V3.25563C14.1033 3.3203 14.1088 3.38081 14.1199 3.43717C14.1309 3.49352 14.149 3.54341 14.1739 3.58684C14.1988 3.62934 14.2306 3.66259 14.2693 3.68661C14.309 3.71064 14.3569 3.72264 14.4132 3.72264C14.4851 3.72264 14.5441 3.70693 14.5903 3.67553C14.6373 3.64318 14.6737 3.59931 14.6996 3.54387C14.7255 3.48751 14.742 3.42424 14.7494 3.35402V3.13645C14.7456 3.08101 14.736 3.02974 14.7204 2.98263C14.7056 2.93551 14.6844 2.89486 14.6566 2.86068C14.6299 2.8265 14.5968 2.7997 14.5571 2.78031C14.5174 2.7609 14.4703 2.7512 14.4159 2.7512C14.3597 2.7512 14.3118 2.76367 14.2721 2.78862C14.2325 2.81264 14.2001 2.84636 14.1752 2.88979C14.1503 2.9332 14.1319 2.98355 14.1199 3.04083C14.1088 3.09811 14.1033 3.16001 14.1033 3.22653ZM15.7842 2.4879V3.98733H15.4176V2.4879H15.7842ZM15.3927 2.09572C15.3927 2.04122 15.4111 1.99595 15.4481 1.95992C15.4858 1.92388 15.5366 1.90586 15.6002 1.90586C15.6639 1.90586 15.7142 1.92388 15.751 1.95992C15.7888 1.99595 15.8077 2.04122 15.8077 2.09572C15.8077 2.1493 15.7888 2.19411 15.751 2.23014C15.7142 2.26617 15.6639 2.28419 15.6002 2.28419C15.5366 2.28419 15.4858 2.26617 15.4481 2.23014C15.4111 2.19411 15.3927 2.1493 15.3927 2.09572ZM17.4388 3.688V3.98733H16.4262V3.688H17.4388ZM16.5409 1.96961V3.98733H16.1605V1.96961H16.5409ZM18.4902 3.6686V2.97708C18.4902 2.92627 18.4815 2.88238 18.4639 2.84544C18.4464 2.80847 18.4198 2.77984 18.3838 2.75952C18.3478 2.73919 18.3021 2.72903 18.2468 2.72903C18.1979 2.72903 18.155 2.73734 18.1181 2.75397C18.0821 2.7706 18.0545 2.79416 18.0351 2.82465C18.0158 2.85421 18.0061 2.88839 18.0061 2.9272H17.6394C17.6394 2.8653 17.6542 2.80663 17.6837 2.7512C17.7132 2.69484 17.7552 2.64495 17.8097 2.60153C17.8649 2.55718 17.9309 2.52255 18.0074 2.4976C18.085 2.47266 18.1716 2.46018 18.2675 2.46018C18.3809 2.46018 18.482 2.47958 18.5705 2.51838C18.66 2.55626 18.73 2.61354 18.7808 2.69022C18.8325 2.76691 18.8582 2.86345 18.8582 2.97986V3.63395C18.8582 3.70878 18.8628 3.77299 18.8722 3.82657C18.8822 3.87923 18.8969 3.92497 18.9164 3.96377V3.98733H18.5442C18.5267 3.94945 18.5133 3.9014 18.5041 3.8432C18.4948 3.78407 18.4902 3.72588 18.4902 3.6686ZM18.5415 3.07408L18.5442 3.29166H18.3132C18.256 3.29166 18.2057 3.29767 18.1624 3.30967C18.1191 3.32076 18.0835 3.33739 18.0558 3.35956C18.0282 3.38081 18.0074 3.40668 17.9936 3.43717C17.9798 3.46674 17.9728 3.50045 17.9728 3.53833C17.9728 3.57528 17.9812 3.60855 17.9977 3.63811C18.0153 3.66767 18.0402 3.69123 18.0724 3.70878C18.1056 3.72542 18.1443 3.73373 18.1886 3.73373C18.2532 3.73373 18.3095 3.72079 18.3574 3.69492C18.4054 3.66814 18.4428 3.63579 18.4695 3.59792C18.4963 3.56004 18.5106 3.52401 18.5124 3.48983L18.6175 3.64781C18.6046 3.68568 18.5853 3.72588 18.5594 3.76837C18.5336 3.81087 18.5004 3.8506 18.4598 3.88754C18.4193 3.92451 18.3704 3.955 18.3132 3.97901C18.256 4.00303 18.1896 4.01505 18.114 4.01505C18.0171 4.01505 17.9304 3.99564 17.8539 3.95684C17.7773 3.91804 17.7169 3.86491 17.6726 3.79747C17.6283 3.73003 17.6062 3.65335 17.6062 3.56743C17.6062 3.48798 17.621 3.41777 17.6505 3.3568C17.68 3.29581 17.7238 3.24455 17.7819 3.20297C17.84 3.16047 17.912 3.1286 17.9977 3.10735C18.0845 3.08518 18.1837 3.07408 18.2952 3.07408H18.5415ZM19.1862 1.85875H19.5527V3.65612L19.5167 3.98733H19.1862V1.85875ZM20.5156 3.22236V3.25147C20.5156 3.36326 20.5032 3.4658 20.4783 3.55912C20.4543 3.65243 20.4179 3.73327 20.369 3.80163C20.3201 3.86907 20.2593 3.92173 20.1863 3.95961C20.1145 3.99656 20.03 4.01505 19.9332 4.01505C19.841 4.01505 19.7608 3.99702 19.6925 3.96099C19.6251 3.92497 19.5684 3.87416 19.5223 3.80856C19.4762 3.74204 19.4393 3.66397 19.4117 3.57436C19.3839 3.48382 19.3633 3.38496 19.3493 3.2778V3.19881C19.3633 3.09072 19.3839 2.99186 19.4117 2.90225C19.4393 2.81264 19.4762 2.73457 19.5223 2.66806C19.5684 2.60153 19.6251 2.55027 19.6925 2.51423C19.7598 2.4782 19.8391 2.46018 19.9304 2.46018C20.0282 2.46018 20.1135 2.47912 20.1863 2.517C20.2601 2.55395 20.3211 2.60661 20.369 2.67498C20.4179 2.74243 20.4543 2.82279 20.4783 2.91611C20.5032 3.0085 20.5156 3.11058 20.5156 3.22236ZM20.149 3.25147V3.22236C20.149 3.15862 20.144 3.09857 20.1338 3.04221C20.1237 2.98493 20.107 2.93459 20.084 2.89117C20.061 2.84775 20.0296 2.81356 19.9899 2.78862C19.9502 2.76367 19.9004 2.7512 19.8406 2.7512C19.7833 2.7512 19.7344 2.7609 19.6938 2.78031C19.6543 2.7997 19.621 2.8265 19.5943 2.86068C19.5684 2.89486 19.5481 2.93505 19.5334 2.98124C19.5196 3.02743 19.5104 3.07732 19.5058 3.13091V3.34709C19.5121 3.41823 19.5274 3.48244 19.5513 3.53971C19.5754 3.59607 19.6108 3.64088 19.6579 3.67414C19.7059 3.7074 19.7676 3.72402 19.8433 3.72402C19.9023 3.72402 19.9517 3.71248 19.9913 3.68939C20.031 3.66536 20.0624 3.6321 20.0854 3.5896C20.1084 3.54618 20.1246 3.49584 20.1338 3.43856C20.144 3.38127 20.149 3.31892 20.149 3.25147ZM22.851 2.80248V3.1018H21.7912V2.80248H22.851ZM21.895 1.96961V3.98733H21.5145V1.96961H21.895ZM23.1331 1.96961V3.98733H22.7528V1.96961H23.1331ZM23.4278 3.25286V3.22376C23.4278 3.11382 23.4435 3.01265 23.4749 2.92027C23.5062 2.82696 23.5519 2.74612 23.6118 2.67775C23.6718 2.60939 23.7451 2.55626 23.8318 2.51838C23.9186 2.47958 24.0173 2.46018 24.1279 2.46018C24.2404 2.46018 24.34 2.47958 24.4267 2.51838C24.5143 2.55626 24.5882 2.60939 24.648 2.67775C24.708 2.74612 24.7537 2.82696 24.785 2.92027C24.8164 3.01265 24.8321 3.11382 24.8321 3.22376V3.25286C24.8321 3.36187 24.8164 3.46303 24.785 3.55635C24.7537 3.64873 24.708 3.72957 24.648 3.79885C24.5882 3.86723 24.5147 3.92035 24.4281 3.95822C24.3414 3.9961 24.2423 4.01505 24.1306 4.01505C24.02 4.01505 23.9208 3.9961 23.8332 3.95822C23.7456 3.92035 23.6718 3.86723 23.6118 3.79885C23.5519 3.72957 23.5062 3.64873 23.4749 3.55635C23.4435 3.46303 23.4278 3.36187 23.4278 3.25286ZM23.7931 3.22376V3.25286C23.7931 3.31846 23.7996 3.37989 23.8124 3.43717C23.8254 3.49444 23.8452 3.5448 23.8719 3.58822C23.8987 3.63164 23.9333 3.66582 23.9757 3.69077C24.019 3.71479 24.0707 3.7268 24.1306 3.7268C24.1896 3.7268 24.2404 3.71479 24.2829 3.69077C24.3253 3.66582 24.3598 3.63164 24.3865 3.58822C24.4143 3.5448 24.4346 3.49444 24.4474 3.43717C24.4603 3.37989 24.4668 3.31846 24.4668 3.25286V3.22376C24.4668 3.15909 24.4603 3.09857 24.4474 3.04221C24.4346 2.98493 24.4143 2.93459 24.3865 2.89117C24.3598 2.84682 24.3248 2.81218 24.2815 2.78724C24.239 2.76136 24.1878 2.74842 24.1279 2.74842C24.0688 2.74842 24.0181 2.76136 23.9757 2.78724C23.9333 2.81218 23.8987 2.84682 23.8719 2.89117C23.8452 2.93459 23.8254 2.98493 23.8124 3.04221C23.7996 3.09857 23.7931 3.15909 23.7931 3.22376ZM25.9209 3.57713C25.9209 3.54572 25.9125 3.51754 25.896 3.4926C25.8793 3.46766 25.8479 3.44503 25.8019 3.4247C25.7567 3.40345 25.6902 3.38358 25.6026 3.36511C25.5252 3.34848 25.4538 3.32769 25.3882 3.30274C25.3227 3.2778 25.2665 3.24778 25.2194 3.21267C25.1724 3.17664 25.1355 3.13461 25.1088 3.08656C25.0829 3.0376 25.0701 2.98124 25.0701 2.91749C25.0701 2.8556 25.0834 2.79739 25.1101 2.74289C25.1369 2.68745 25.1756 2.63896 25.2264 2.59738C25.277 2.55488 25.3389 2.52162 25.4117 2.4976C25.4846 2.47266 25.5667 2.46018 25.658 2.46018C25.7853 2.46018 25.8946 2.48097 25.9858 2.52255C26.0781 2.56411 26.1486 2.6214 26.1975 2.69438C26.2464 2.76645 26.2708 2.84775 26.2708 2.93828H25.9057C25.9057 2.89856 25.8965 2.86253 25.8779 2.83018C25.8605 2.79785 25.8332 2.77199 25.7963 2.75259C25.7594 2.73226 25.7129 2.7221 25.6566 2.7221C25.6059 2.7221 25.563 2.73041 25.5279 2.74704C25.4938 2.76367 25.468 2.78538 25.4504 2.81218C25.433 2.83897 25.4242 2.86854 25.4242 2.90087C25.4242 2.92488 25.4288 2.94659 25.438 2.966C25.4482 2.98447 25.4643 3.00157 25.4865 3.01728C25.5085 3.03298 25.5385 3.0473 25.5764 3.06024C25.6151 3.07316 25.6626 3.08564 25.7189 3.09765C25.8305 3.11983 25.9277 3.14939 26.0107 3.18634C26.0947 3.22236 26.1602 3.27041 26.2072 3.33046C26.2543 3.39051 26.2778 3.4672 26.2778 3.5605C26.2778 3.62702 26.2635 3.688 26.2349 3.74343C26.2064 3.79793 26.1648 3.84552 26.1104 3.88616C26.056 3.92682 25.9909 3.95869 25.9153 3.98178C25.8397 4.00395 25.7543 4.01505 25.6594 4.01505C25.522 4.01505 25.4057 3.99056 25.3108 3.9416C25.2158 3.89171 25.1439 3.82889 25.0949 3.75312C25.046 3.67645 25.0215 3.59699 25.0215 3.51477H25.3716C25.3744 3.57298 25.39 3.61963 25.4187 3.65474C25.4473 3.68985 25.4833 3.71525 25.5266 3.73095C25.5709 3.74573 25.6174 3.75312 25.6663 3.75312C25.7216 3.75312 25.7683 3.74573 25.806 3.73095C25.8438 3.71525 25.8724 3.69446 25.8917 3.6686C25.9112 3.6418 25.9209 3.61131 25.9209 3.57713ZM26.9211 2.77614V4.56382H26.5545V2.4879H26.8934L26.9211 2.77614ZM27.8826 3.22236V3.25147C27.8826 3.36048 27.8696 3.46165 27.8439 3.55497C27.819 3.64735 27.782 3.72819 27.7332 3.79747C27.6843 3.86584 27.6234 3.91943 27.5505 3.95822C27.4786 3.9961 27.3956 4.01505 27.3016 4.01505C27.2094 4.01505 27.1291 3.99749 27.0608 3.96239C26.9926 3.92636 26.9349 3.87554 26.8879 3.80995C26.8409 3.74435 26.803 3.66814 26.7744 3.58129C26.7468 3.49352 26.726 3.3979 26.7122 3.29443V3.20159C26.726 3.09165 26.7468 2.99186 26.7744 2.90225C26.803 2.81171 26.8409 2.73364 26.8879 2.66806C26.9349 2.60153 26.9921 2.55027 27.0594 2.51423C27.1277 2.4782 27.2075 2.46018 27.2987 2.46018C27.3938 2.46018 27.4772 2.4782 27.5492 2.51423C27.6221 2.55027 27.6833 2.602 27.7332 2.66944C27.783 2.73688 27.8203 2.81726 27.8452 2.91056C27.8701 3.00388 27.8826 3.10781 27.8826 3.22236ZM27.5159 3.25147V3.22236C27.5159 3.15586 27.51 3.09441 27.498 3.03806C27.486 2.98078 27.4675 2.93089 27.4426 2.88839C27.4177 2.84497 27.3855 2.81125 27.3458 2.78724C27.3062 2.76321 27.2582 2.7512 27.2019 2.7512C27.1457 2.7512 27.0972 2.76044 27.0567 2.77891C27.0161 2.79739 26.9829 2.82373 26.9571 2.8579C26.9312 2.89209 26.9109 2.93274 26.8962 2.97986C26.8823 3.02605 26.8731 3.07732 26.8685 3.13367V3.36373C26.8768 3.43209 26.893 3.49352 26.9169 3.54804C26.9409 3.60254 26.976 3.64596 27.0221 3.67829C27.0691 3.71064 27.13 3.7268 27.2048 3.7268C27.2609 3.7268 27.3089 3.71433 27.3485 3.68939C27.3882 3.66443 27.4206 3.63026 27.4455 3.58684C27.4704 3.54249 27.4883 3.49168 27.4994 3.43439C27.5104 3.37711 27.5159 3.31614 27.5159 3.25147ZM28.537 2.4879V3.98733H28.1703V2.4879H28.537ZM28.1454 2.09572C28.1454 2.04122 28.164 1.99595 28.2008 1.95992C28.2386 1.92388 28.2893 1.90586 28.353 1.90586C28.4166 1.90586 28.4669 1.92388 28.5037 1.95992C28.5416 1.99595 28.5605 2.04122 28.5605 2.09572C28.5605 2.1493 28.5416 2.19411 28.5037 2.23014C28.4669 2.26617 28.4166 2.28419 28.353 2.28419C28.2893 2.28419 28.2386 2.26617 28.2008 2.23014C28.164 2.19411 28.1454 2.1493 28.1454 2.09572ZM29.594 2.4879V2.7512H28.7362V2.4879H29.594ZM28.9659 2.11928H29.3325V3.55497C29.3325 3.59931 29.3385 3.63349 29.3504 3.6575C29.3625 3.68153 29.3804 3.6977 29.4044 3.70601C29.4284 3.71433 29.457 3.71849 29.4902 3.71849C29.5142 3.71849 29.5364 3.71709 29.5565 3.71433C29.5768 3.71156 29.594 3.70878 29.6078 3.70601L29.6092 3.9804C29.5787 3.99056 29.5441 3.99888 29.5054 4.00534C29.4676 4.01181 29.4247 4.01505 29.3767 4.01505C29.2947 4.01505 29.2227 4.00119 29.1609 3.97347C29.0991 3.94483 29.0511 3.8991 29.017 3.83628C28.9829 3.77253 28.9659 3.68846 28.9659 3.58406V2.11928ZM30.662 3.6686V2.97708C30.662 2.92627 30.6532 2.88238 30.6357 2.84544C30.6182 2.80847 30.5914 2.77984 30.5554 2.75952C30.5195 2.73919 30.4738 2.72903 30.4185 2.72903C30.3696 2.72903 30.3267 2.73734 30.2898 2.75397C30.2539 2.7706 30.2261 2.79416 30.2068 2.82465C30.1874 2.85421 30.1777 2.88839 30.1777 2.9272H29.8112C29.8112 2.8653 29.8259 2.80663 29.8555 2.7512C29.885 2.69484 29.9269 2.64495 29.9813 2.60153C30.0367 2.55718 30.1025 2.52255 30.1792 2.4976C30.2566 2.47266 30.3434 2.46018 30.4392 2.46018C30.5527 2.46018 30.6536 2.47958 30.7422 2.51838C30.8317 2.55626 30.9018 2.61354 30.9525 2.69022C31.0041 2.76691 31.03 2.86345 31.03 2.97986V3.63395C31.03 3.70878 31.0346 3.77299 31.0438 3.82657C31.054 3.87923 31.0687 3.92497 31.0881 3.96377V3.98733H30.716C30.6984 3.94945 30.685 3.9014 30.6758 3.8432C30.6666 3.78407 30.662 3.72588 30.662 3.6686ZM30.7131 3.07408L30.716 3.29166H30.4849C30.4277 3.29166 30.3775 3.29767 30.3341 3.30967C30.2907 3.32076 30.2552 3.33739 30.2276 3.35956C30.1999 3.38081 30.1792 3.40668 30.1653 3.43717C30.1514 3.46674 30.1446 3.50045 30.1446 3.53833C30.1446 3.57528 30.1528 3.60855 30.1695 3.63811C30.187 3.66767 30.2119 3.69123 30.2442 3.70878C30.2774 3.72542 30.3161 3.73373 30.3604 3.73373C30.425 3.73373 30.4811 3.72079 30.5292 3.69492C30.5771 3.66814 30.6144 3.63579 30.6412 3.59792C30.668 3.56004 30.6823 3.52401 30.6841 3.48983L30.7893 3.64781C30.7763 3.68568 30.7569 3.72588 30.7312 3.76837C30.7053 3.81087 30.6722 3.8506 30.6316 3.88754C30.5909 3.92451 30.5421 3.955 30.4849 3.97901C30.4277 4.00303 30.3613 4.01505 30.2856 4.01505C30.1888 4.01505 30.1022 3.99564 30.0256 3.95684C29.9491 3.91804 29.8886 3.86491 29.8444 3.79747C29.8001 3.73003 29.7779 3.65335 29.7779 3.56743C29.7779 3.48798 29.7926 3.41777 29.8222 3.3568C29.8517 3.29581 29.8956 3.24455 29.9537 3.20297C30.0118 3.16047 30.0837 3.1286 30.1695 3.10735C30.2561 3.08518 30.3553 3.07408 30.4669 3.07408H30.7131ZM31.7466 1.85875V3.98733H31.38V1.85875H31.7466Z" fill="#87A644"/>
</g>
<g filter="url(#filter1_d_1705_2)">
<path d="M7.625 5.28813V4.95025C7.625 4.90588 7.61737 4.86195 7.60253 4.82095C7.58771 4.77998 7.56597 4.74273 7.53857 4.71133C7.51115 4.67996 7.47861 4.65508 7.44282 4.63809C7.407 4.62112 7.36862 4.61239 7.32986 4.61239H6.14922C5.75784 4.61239 5.3825 4.4344 5.10574 4.11759C4.82899 3.80077 4.67352 3.37109 4.6735 2.92304C4.6735 2.70119 4.71168 2.48151 4.78585 2.27656C4.86001 2.07158 4.9687 1.88536 5.10574 1.72848C5.24277 1.57162 5.40545 1.44718 5.58449 1.36228C5.76353 1.27739 5.95543 1.23369 6.14922 1.23369H7.32978C7.36853 1.23372 7.40694 1.22498 7.44274 1.20801C7.47856 1.19104 7.51112 1.16615 7.53852 1.13477C7.56595 1.1034 7.58768 1.06615 7.60253 1.02515C7.61737 0.984154 7.625 0.94021 7.625 0.895829V0.557953H6.14929C5.87798 0.557953 5.60933 0.619126 5.35867 0.737983C5.10802 0.856841 4.88027 1.03105 4.68843 1.25067C4.49659 1.4703 4.34441 1.73101 4.24058 2.01797C4.13676 2.30491 4.08333 2.61246 4.08333 2.92304C4.08333 3.55028 4.30099 4.15187 4.68844 4.5954C5.07587 5.03894 5.60136 5.28813 6.14929 5.28813H7.625Z" fill="url(#paint0_linear_1705_2)"/>
<path d="M5.26377 2.92304C5.26377 3.19187 5.35706 3.44966 5.5231 3.63973C5.68914 3.82983 5.91434 3.93661 6.14916 3.93661H7.62499C7.78154 3.93661 7.93166 4.00781 8.04235 4.13453C8.15305 4.26125 8.21524 4.43314 8.21524 4.61235V5.2881H8.80553V4.61239C8.80553 4.25396 8.68116 3.9102 8.45977 3.65674C8.23836 3.40329 7.93808 3.26092 7.62499 3.26092H6.1492C6.07093 3.26092 5.99586 3.22531 5.9405 3.16196C5.88516 3.09859 5.85406 3.01265 5.85406 2.92304C5.85406 2.83343 5.88516 2.74749 5.9405 2.68413C5.99586 2.62076 6.07093 2.58516 6.1492 2.58516H7.62499C7.93808 2.58516 8.23836 2.44279 8.45977 2.18933C8.68116 1.93589 8.80553 1.59213 8.80553 1.23369V0.557953H8.21516V1.23369C8.21516 1.4129 8.15298 1.58476 8.04231 1.71146C7.93164 1.83819 7.78152 1.90939 7.62499 1.90942H6.1492C6.03293 1.90941 5.91779 1.93563 5.81036 1.98656C5.70293 2.0375 5.60532 2.11217 5.5231 2.20629C5.44088 2.30041 5.37565 2.41216 5.33116 2.53514C5.28666 2.65811 5.26377 2.78993 5.26377 2.92304Z" fill="url(#paint1_linear_1705_2)"/>
</g>
<defs>
<filter id="filter0_d_1705_2" x="5.82426" y="1.85875" width="29.9223" height="10.7051" filterUnits="userSpaceOnUse" color-interpolation-filters="sRGB">
<feFlood flood-opacity="0" result="BackgroundImageFix"/>
<feColorMatrix in="SourceAlpha" type="matrix" values="0 0 0 0 0 0 0 0 0 0 0 0 0 0 0 0 0 0 127 0" result="hardAlpha"/>
<feOffset dy="4"/>
<feGaussianBlur stdDeviation="2"/>
<feComposite in2="hardAlpha" operator="out"/>
<feColorMatrix type="matrix" values="0 0 0 0 0 0 0 0 0 0 0 0 0 0 0 0 0 0 0.25 0"/>
<feBlend mode="normal" in2="BackgroundImageFix" result="effect1_dropShadow_1705_2"/>
<feBlend mode="normal" in="SourceGraphic" in2="effect1_dropShadow_1705_2" result="shape"/>
</filter>
<filter id="filter1_d_1705_2" x="0.0833321" y="0.557953" width="12.7222" height="12.7302" filterUnits="userSpaceOnUse" color-interpolation-filters="sRGB">
<feFlood flood-opacity="0" result="BackgroundImageFix"/>
<feColorMatrix in="SourceAlpha" type="matrix" values="0 0 0 0 0 0 0 0 0 0 0 0 0 0 0 0 0 0 127 0" result="hardAlpha"/>
<feOffset dy="4"/>
<feGaussianBlur stdDeviation="2"/>
<feComposite in2="hardAlpha" operator="out"/>
<feColorMatrix type="matrix" values="0 0 0 0 0 0 0 0 0 0 0 0 0 0 0 0 0 0 0.25 0"/>
<feBlend mode="normal" in2="BackgroundImageFix" result="effect1_dropShadow_1705_2"/>
<feBlend mode="normal" in="SourceGraphic" in2="effect1_dropShadow_1705_2" result="shape"/>
</filter>
<linearGradient id="paint0_linear_1705_2" x1="4.61812" y1="2.92304" x2="9.16208" y2="2.92304" gradientUnits="userSpaceOnUse">
<stop stop-color="#817696"/>
<stop offset="1" stop-color="#817698"/>
</linearGradient>
<linearGradient id="paint1_linear_1705_2" x1="4.61563" y1="2.92303" x2="9.16326" y2="2.92303" gradientUnits="userSpaceOnUse">
<stop stop-color="#8575D2"/>
<stop offset="1" stop-color="#9083D5"/>
</linearGradient>
</defs>
</svg>
